<svg width="22" height="24" viewBox="0 0 22 24" fill="none" xmlns="http://www.w3.org/2000/svg">
<path d="M18.0577 12.64C18.0465 10.7965 18.9726 9.40503 20.8472 8.38029C19.7984 7.02904 18.2139 6.2856 16.1217 6.13993C14.1411 5.99928 11.9764 7.17974 11.1841 7.17974C10.3472 7.17974 8.428 6.19016 6.92163 6.19016C3.80845 6.23537 0.5 8.4255 0.5 12.8811C0.5 14.1972 0.7678 15.5568 1.3034 16.96C2.01753 18.8035 4.59511 23.3244 7.28427 23.2491C8.69022 23.2189 9.68332 22.3499 11.5133 22.3499C13.2875 22.3499 14.208 23.2491 15.7758 23.2491C18.4872 23.2139 20.8193 19.1049 21.5 17.2563C17.8624 15.7142 18.0577 12.7354 18.0577 12.64ZM14.8998 4.39185C16.423 2.76432 16.2835 1.28246 16.2388 0.75C14.8943 0.820325 13.3377 1.57381 12.4506 2.50311C11.4742 3.49771 10.8996 4.7284 11.0223 6.11482C12.4785 6.21528 13.8063 5.54217 14.8998 4.39185Z" fill="white"/>
</svg>
