<svg width="30" height="31" viewBox="0 0 30 31" fill="none" xmlns="http://www.w3.org/2000/svg">
<path fill-rule="evenodd" clip-rule="evenodd" d="M14.9999 0.833252C6.89974 0.833252 0.333252 7.39974 0.333252 15.4999C0.333252 23.6001 6.89974 30.1666 14.9999 30.1666C23.1001 30.1666 29.6666 23.6001 29.6666 15.4999C29.6666 7.39974 23.1001 0.833252 14.9999 0.833252ZM11.7996 10.3214C11.6666 10.499 11.6666 10.8172 11.6666 11.4536V19.546C11.6666 20.1824 11.6666 20.5006 11.7996 20.6782C11.9155 20.833 12.0929 20.9299 12.2858 20.9437C12.5071 20.9595 12.7747 20.7874 13.3101 20.4433L19.6042 16.3971C20.0687 16.0984 20.301 15.9491 20.3812 15.7593C20.4513 15.5934 20.4513 15.4062 20.3812 15.2403C20.301 15.0505 20.0687 14.9012 19.6042 14.6025L13.3101 10.5563C12.7748 10.2122 12.5071 10.0401 12.2858 10.0559C12.0929 10.0697 11.9155 10.1666 11.7996 10.3214Z" fill="white"/>
</svg>
