<svg width="22" height="24" viewBox="0 0 22 24" fill="none" xmlns="http://www.w3.org/2000/svg">
<path d="M2.34216 7.79383C1.92914 7.79383 1.57871 7.93786 1.29065 8.22592C1.00259 8.51398 0.858521 8.85964 0.858521 9.26308V15.4574C0.858521 15.871 1.00255 16.2211 1.29065 16.5092C1.57871 16.7973 1.92914 16.9413 2.34216 16.9413C2.75487 16.9413 3.10318 16.7973 3.38677 16.5092C3.6698 16.2211 3.81171 15.871 3.81171 15.4574V9.26308C3.81171 8.8596 3.66768 8.51398 3.37958 8.22592C3.09148 7.93786 2.7456 7.79383 2.34216 7.79383ZM14.2701 2.23316L15.2929 0.346343C15.3601 0.221428 15.3362 0.125639 15.2211 0.0582839C15.0961 0.000203958 15.0001 0.029634 14.933 0.144494L13.8959 2.04639C12.9833 1.64291 12.0181 1.4408 11.0003 1.4408C9.98222 1.4408 9.01692 1.64295 8.10468 2.04639L7.06752 0.144494C7.00012 0.029634 6.90412 0.00046402 6.77946 0.0582839C6.66408 0.125943 6.6402 0.221428 6.7076 0.346343L7.73046 2.23316C6.6933 2.76208 5.86726 3.49869 5.25265 4.44462C4.63805 5.39106 4.33061 6.42531 4.33061 7.5492H17.6554C17.6554 6.42557 17.348 5.39128 16.7334 4.44462C16.1188 3.49869 15.2975 2.76208 14.2701 2.23316ZM8.35668 4.97756C8.24607 5.08844 8.11396 5.14361 7.96039 5.14361C7.80652 5.14361 7.6771 5.08844 7.57152 4.97756C7.46593 4.86721 7.41314 4.73562 7.41314 4.58154C7.41314 4.42797 7.46593 4.29612 7.57152 4.18551C7.6771 4.07516 7.80683 4.01998 7.96039 4.01998C8.11396 4.01998 8.24607 4.07516 8.35668 4.18551C8.46703 4.29638 8.52247 4.42797 8.52247 4.58154C8.52216 4.73536 8.46677 4.86721 8.35668 4.97756ZM14.4285 4.97756C14.3227 5.08844 14.1929 5.14361 14.0396 5.14361C13.8857 5.14361 13.7536 5.08844 13.6432 4.97756C13.5327 4.86721 13.4775 4.73562 13.4775 4.58154C13.4775 4.42797 13.5327 4.29612 13.6432 4.18551C13.7536 4.07516 13.8857 4.01998 14.0396 4.01998C14.1932 4.01998 14.3226 4.07516 14.4285 4.18551C14.5341 4.29638 14.5868 4.42797 14.5868 4.58154C14.5868 4.73536 14.5341 4.86721 14.4285 4.97756ZM4.38783 17.6615C4.38783 18.1037 4.54139 18.478 4.84857 18.7852C5.156 19.0923 5.53031 19.2459 5.9722 19.2459H7.03826L7.05287 22.5163C7.05287 22.9293 7.1969 23.28 7.48496 23.5681C7.77302 23.8562 8.11894 24.0002 8.52212 24.0002C8.93488 24.0002 9.28552 23.8562 9.57362 23.5681C9.86173 23.28 10.0058 22.9293 10.0058 22.5163V19.2462H11.9937V22.5163C11.9937 22.9293 12.1376 23.28 12.4257 23.5681C12.7138 23.8562 13.0642 24.0002 13.4772 24.0002C13.89 24.0002 14.2406 23.8562 14.5288 23.5681C14.8169 23.28 14.9608 22.9293 14.9608 22.5163V19.2462H16.0413C16.4734 19.2462 16.8429 19.0926 17.1506 18.7854C17.4578 18.4782 17.6114 18.1039 17.6114 17.6618V8.06728H4.38783V17.6615ZM19.6578 7.79383C19.2543 7.79383 18.9087 7.93574 18.6206 8.21877C18.3326 8.50232 18.1885 8.85063 18.1885 9.26308V15.4574C18.1885 15.871 18.3325 16.2211 18.6206 16.5092C18.9087 16.7973 19.2546 16.9413 19.6578 16.9413C20.0706 16.9413 20.4212 16.7973 20.7093 16.5092C20.9974 16.2211 21.1414 15.871 21.1414 15.4574V9.26308C21.1414 8.85058 20.9974 8.50232 20.7093 8.21877C20.4212 7.93574 20.0706 7.79383 19.6578 7.79383Z" fill="white"/>
</svg>
